# AST/ASF file generated using VICON BodyLanguage
# -----------------------------------------------
:version 1.10
:name VICON
:units
  mass 1.0
  length 0.45
  angle deg
:documentation
   .ast/.asf automatically generated from VICON data using
   VICON BodyBuilder and BodyLanguage model FoxedUp or BRILLIANT.MOD
:root
   order TX TY TZ RX RY RZ
   axis XYZ
   position 0 0 0  
   orientation 0 0 0 
:bonedata
  begin
     id 1 
     name lhipjoint
     direction 0.660183 -0.676772 0.325788 
     length 2.75133 
     axis 0 0 0  XYZ
  end
  begin
     id 2 
     name lfemur
     direction 0.34202 -0.939693 0  
     length 7.70317  
     axis 0 0 20  XYZ
    dof rx ry rz
    limits (-160.0 20.0)
           (-70.0 70.0)
           (-60.0 70.0)
  end
  begin
     id 3 
     name ltibia
     direction 0.342105 -0.939662 0   
     length 7.18701   
     axis 0 0 20   XYZ
    dof rx
    limits (-10.0 170.0)
  end
  begin
     id 4 
     name lfoot
     direction 0.14163 -0.389126 0.910232   
     length 2.41719   
     axis -90 7.62852e-016 20   XYZ
    dof rx rz
    limits (-45.0 90.0)
           (-70.0 20.0)
  end
  begin
     id 5 
     name ltoes
     direction 1.53533e-011 -4.21926e-011 1   
     length 1.18611   
     axis -90 7.62852e-016 20   XYZ
    dof rx
    limits (-90.0 20.0)
  end
  begin
     id 6 
     name rhipjoint
     direction -0.6658 -0.67229 0.323631   
     length 2.76968  
     axis 0 0 0  XYZ 
  end
  begin
     id 7 
     name rfemur
     direction -0.34202 -0.939693 0   
     length 7.92547   
     axis 0 0 -20   XYZ
    dof rx ry rz
    limits (-160.0 20.0)
           (-70.0 70.0)
           (-70.0 60.0)
  end
  begin
     id 8 
     name rtibia
     direction -0.342022 -0.939692 0   
     length 7.22641   
     axis 0 0 -20   XYZ
    dof rx
    limits (-10.0 170.0)
 end
 begin
     id 9 
     name rfoot
     direction -0.105675 -0.29034 0.951071   
     length 2.48149  
     axis -90 -7.62852e-016 -20   XYZ
    dof rx rz
    limits (-45.0 90.0)
           (-20.0 70.0)
  end
  begin
     id 10 
     name rtoes
     direction -1.5349e-011 -4.21859e-011 1   
     length 1.23343   
     axis -90 -7.62852e-016 -20   XYZ
    dof rx
    limits (-90.0 20.0)
  end
  begin
     id 11 
     name lowerback
     direction 0.0104173 0.993624 -0.112266   
     length 2.00527   
     axis 0 0 0   XYZ
    dof rx ry rz
    limits (-20.0 45.0)
           (-30.0 30.0)
           (-30.0 30.0)
  end
  begin
     id 12 
     name upperback
     direction 0.00733149 0.999856 -0.0152913   
     length 2.01385   
     axis 0 0 0   XYZ
    dof rx ry rz
    limits (-20.0 45.0)
           (-30.0 30.0)
           (-30.0 30.0)
  end
  begin
     id 13 
     name thorax
     direction 0.0026304 0.999318 0.036841   
     length 2.03734   
     axis 0 0 0   XYZ
    dof rx ry rz
    limits (-20.0 45.0)
           (-30.0 30.0)
           (-30.0 30.0)
  end
  begin
     id 14 
     name lowerneck
     direction 0.0293154 0.998757 0.0403082   
     length 1.65303   
     axis 0 0 0   XYZ
    dof rx ry rz
    limits (-20.0 45.0)
           (-30.0 30.0)
           (-30.0 30.0)
  end
  begin
     id 15 
     name upperneck
     direction -0.0376619 0.998184 -0.0470083   
     length 1.60926   
     axis 0 0 0   XYZ
    dof rx ry rz
    limits (-20.0 45.0)
           (-30.0 30.0)
           (-30.0 30.0)
  end
  begin
     id 16
     name head
     direction -0.0170133 0.999635 -0.0209778  
     length 1.73625  
     axis 0 0 0   XYZ
    dof rx ry rz
    limits (-20.0 45.0)
           (-30.0 30.0)
           (-30.0 30.0)
  end
  begin
     id 17 
     name lclavicle
     direction 0.919857 0.39181 -0.0186333  
     length 3.75313  
     axis 0 0 0   XYZ
    dof ry rz
    limits (-20.0 10.0)
           (0.0 20.0)
  end
  begin
     id 18 
     name lhumerus
     direction 1 -4.48988e-011 1.44029e-027   
     length 5.49313   
     axis 180 -30 -90   XYZ
    dof rx ry rz
    limits (-60.0 90.0)
           (-90.0 90.0)
           (-90.0 90.0)
  end
  begin
     id 19
     name lradius
     direction 1 -4.48924e-011 7.46281e-027   
     length 3.29037   
     axis 180 -30 -90   XYZ
    dof rx
    limits (-10.0 170.0)
  end
  begin
     id 20
     name lwrist
     direction 1 -4.48955e-011 2.19879e-026   
     length 1.64519   
     axis -1.34358e-014 90 90   XYZ
    dof ry
    limits (-180.0 0.0)
 end
  begin
     id 21 
     name lhand
     direction 1 -4.48978e-011 4.39747e-026   
     length 0.729656   
     axis -2.80598e-014 90 90   XYZ
    dof rx rz
    limits (-90.0 90.0)
           (-45.0 45.0)
  end
  begin
     id 22 
     name lfingers
     direction 1 -4.49071e-011 8.79411e-026   
     length 0.588268   
     axis -5.61193e-014 90 90   XYZ
    dof rx
    limits (0.0 90.0)
  end
  begin
     id 23
     name lthumb
     direction 0.707107 -6.34817e-011 0.707107   
     length 0.844638   
     axis -90 45 -9.86923e-015   XYZ
    dof rx rz
    limits (-45.0 45.0)
           (-45.0 45.0)
  end
  begin
     id 24 
     name rclavicle
     direction -0.919898 0.388279 0.0550233   
     length 3.7171  
     axis 0 0 0   XYZ 
    dof ry rz
    limits (-10.0 20.0)
           (-20.0 0.0)
  end
  begin
     id 25 
     name rhumerus
     direction -1 -4.48968e-011 9.98372e-028  
     length 5.23684   
     axis 180 30 90   XYZ
    dof rx ry rz
    limits (-90.0 60.0)
           (-90.0 90.0)
           (-90.0 90.0)
  end
  begin
     id 26 
     name rradius
     direction -1 -4.48956e-011 1.01023e-026   
     length 3.38251   
     axis 180 30 90   XYZ
    dof rx
    limits (-10.0 170.0)
  end
  begin
     id 27 
     name rwrist
     direction -1 -4.4892e-011 2.19886e-026   
     length 1.69126   
     axis -1.34358e-014 -90 -90   XYZ
    dof ry
    limits (-180.0 0.0)
  end
  begin
     id 28
     name rhand
     direction -1 -4.49024e-011 4.39727e-026   
     length 0.691454   
     axis -2.80598e-014 -90 -90   XYZ
    dof rx rz
    limits (-90.0 90.0)
           (-45.0 45.0)
  end
  begin
     id 29
     name rfingers
     direction -1 -4.49097e-011 8.79388e-026   
     length 0.557468   
     axis -5.61193e-014 -90 -90   XYZ
    dof rx
    limits (0.0 90.0)
  end
  begin
     id 30
     name rthumb
     direction -0.707107 -6.34938e-011 0.707107   
     length 0.800416   
     axis -90 -45 9.86923e-015   XYZ
    dof rx rz
    limits (-45.0 45.0)
           (-45.0 45.0)
  end
:hierarchy
  begin
    root lhipjoint rhipjoint lowerback
    lhipjoint lfemur
    lfemur ltibia
    ltibia lfoot
    lfoot ltoes
    rhipjoint rfemur
    rfemur rtibia
    rtibia rfoot
    rfoot rtoes
    lowerback upperback
    upperback thorax
    thorax lowerneck lclavicle rclavicle
    lowerneck upperneck
    upperneck head
    lclavicle lhumerus
    lhumerus lradius
    lradius lwrist
    lwrist lhand lthumb
    lhand lfingers
    rclavicle rhumerus
    rhumerus rradius
    rradius rwrist
    rwrist rhand rthumb
    rhand rfingers
  end

#!OML:ASF H:\BabyWalks\Project 1\Capture day 1\Session 1\baby.ASF
:FULLY-SPECIFIED
:DEGREES
315
root -37.9073 17.6773 -2.62211 -15.1847 81.8133 -19.7306
lowerback 16.8626 -0.578164 1.32581
upperback 7.19413 -0.101073 1.9015
thorax -1.78669 0.109339 1.26087
lowerneck -1.5838 2.25839 3.52073
upperneck -7.17647 2.84083 -5.34897
head -1.86266 1.48566 -2.34843
rclavicle -1.51076e-014 -1.09332e-014
rhumerus -50.2052 23.9011 -88.5101
rradius 41.8083
rwrist -5.74969
rhand -0.398206 -13.4772
rfingers 7.12502
rthumb 25.2089 -41.8322
lclavicle -1.51076e-014 -1.09332e-014
lhumerus -49.0194 -7.13835 84.3877
lradius 47.7079
lwrist 10.3194
lhand 2.76597 11.6131
lfingers 7.12502
lthumb 28.2369 39.5055
rfemur -1.38095 10.645 24.4854
rtibia 18.3878
rfoot -17.1014 -6.92871
rtoes -16.8614
lfemur -21.7145 -2.98838 -11.7588
ltibia 30.8397
lfoot -16.712 -9.25268
ltoes -2.3112
316
root -37.9086 17.6771 -2.62246 -15.144 81.7979 -19.6948
lowerback 16.8605 -0.572402 1.32761
upperback 7.1881 -0.093824 1.8991
thorax -1.7921 0.112764 1.25602
lowerneck -1.5368 2.24563 3.57845
upperneck -7.2026 2.8222 -5.38624
head -1.87952 1.47627 -2.37269
rclavicle -7.65321e-015 -2.20651e-014
rhumerus -50.2159 23.8755 -88.5131
rradius 41.8233
rwrist -5.76011
rhand -0.41092 -13.4754
rfingers 7.12502
rthumb 25.1967 -41.8321
lclavicle -7.65321e-015 -2.20651e-014
lhumerus -49.051 -7.1713 84.4119
lradius 47.6983
lwrist 10.3135
lhand 2.75717 11.6194
lfingers 7.12502
lthumb 28.2285 39.5132
rfemur -1.39979 10.6469 24.4815
rtibia 18.4003
rfoot -17.0829 -6.92822
rtoes -16.9635
lfemur -21.7222 -2.99112 -11.7567
ltibia 30.8433
lfoot -16.7127 -9.23579
ltoes -2.29434
317
root -37.9098 17.677 -2.62278 -15.0984 81.7847 -19.6564
lowerback 16.8575 -0.566784 1.32924
upperback 7.18106 -0.0868896 1.89615
thorax -1.79809 0.116003 1.25074
lowerneck -1.49208 2.23359 3.63681
upperneck -7.2255 2.80464 -5.42256
head -1.89492 1.46733 -2.39667
rclavicle 2.36554e-014 -1.72943e-014
rhumerus -50.2309 23.8467 -88.5175
rradius 41.8434
rwrist -5.76698
rhand -0.414805 -13.5001
rfingers 7.12502
rthumb 25.193 -41.8573
lclavicle 2.36554e-014 -1.72943e-014
lhumerus -49.0792 -7.19722 84.4306
lradius 47.6894
lwrist 10.307
lhand 2.75398 11.6315
lfingers 7.12502
lthumb 28.2254 39.5259
rfemur -1.42127 10.6484 24.4764
rtibia 18.4129
rfoot -17.068 -6.93032
rtoes -17.0492
lfemur -21.733 -2.99275 -11.7556
ltibia 30.8461
lfoot -16.7136 -9.22245
ltoes -2.28311
318
root -37.9111 17.6769 -2.62308 -15.0488 81.7704 -19.6143
lowerback 16.8558 -0.56025 1.33108
upperback 7.17262 -0.0787687 1.89251
thorax -1.80629 0.119802 1.2444
lowerneck -1.4626 2.22286 3.68042
upperneck -7.23241 2.78957 -5.4434
head -1.90257 1.45935 -2.4122
rclavicle -5.56597e-015 -3.67752e-014
rhumerus -50.2546 23.8151 -88.5252
rradius 41.8672
rwrist -5.77343
rhand -0.417134 -13.5428
rfingers 7.12502
rthumb 25.1908 -41.9004
lclavicle -5.56597e-015 -3.67752e-014
lhumerus -49.1054 -7.21873 84.4456
lradius 47.6788
lwrist 10.3
lhand 2.75368 11.6449
lfingers 7.12502
lthumb 28.2252 39.5393
rfemur -1.44235 10.6543 24.4718
rtibia 18.4258
rfoot -17.0537 -6.93681
rtoes -17.1467
lfemur -21.7429 -2.99529 -11.7546
ltibia 30.8478
lfoot -16.714 -9.20602
ltoes -2.27886
319
root -37.9123 17.6769 -2.62331 -15.0015 81.7565 -19.5751
lowerback 16.8562 -0.55379 1.3326
upperback 7.1618 -0.0708272 1.88859
thorax -1.81808 0.123449 1.23799
lowerneck -1.44281 2.21297 3.7077
upperneck -7.22863 2.77633 -5.44951
head -1.90522 1.45218 -2.41945
rclavicle 1.88845e-014 3.97569e-015
rhumerus -50.2874 23.7825 -88.5385
rradius 41.8972
rwrist -5.77762
rhand -0.412877 -13.6218
rfingers 7.12502
rthumb 25.1948 -41.9788
lclavicle 1.88845e-014 3.97569e-015
lhumerus -49.1326 -7.2361 84.4565
lradius 47.6702
lwrist 10.293
lhand 2.75728 11.6567
lfingers 7.12502
lthumb 28.2286 39.5505
rfemur -1.46448 10.6638 24.4679
rtibia 18.439
rfoot -17.0365 -6.9464
rtoes -17.2471
lfemur -21.7536 -2.99753 -11.753
ltibia 30.8484
lfoot -16.7137 -9.19074
ltoes -2.27694
320
root -37.9135 17.6768 -2.6235 -14.9493 81.7412 -19.5301
lowerback 16.857 -0.545965 1.33333
upperback 7.15244 -0.061135 1.88489
thorax -1.82856 0.12799 1.23195
lowerneck -1.43771 2.20216 3.71672
upperneck -7.21786 2.76234 -5.44237
head -1.9033 1.44465 -2.4185
rclavicle -2.24627e-014 8.54774e-015
rhumerus -50.3246 23.7476 -88.5529
rradius 41.9342
rwrist -5.78342
rhand -0.406266 -13.7273
rfingers 7.12502
rthumb 25.2012 -42.0834
lclavicle -2.24627e-014 8.54774e-015
lhumerus -49.1528 -7.25024 84.4652
lradius 47.66
lwrist 10.2847
lhand 2.76421 11.6635
lfingers 7.12502
lthumb 28.2352 39.5563
rfemur -1.48557 10.676 24.4641
rtibia 18.4528
rfoot -17.018 -6.957
rtoes -17.3527
lfemur -21.7621 -2.99802 -11.752
ltibia 30.8479
lfoot -16.7149 -9.17458
ltoes -2.28395
